<svg width="397" height="63" viewBox="0 0 397 63" fill="none" xmlns="http://www.w3.org/2000/svg">
<path d="M106.311 14.3123V42.4018H122.618V49H99.4774V14.3123H106.311ZM155.592 36.1806C155.592 37.2803 155.921 38.3329 156.581 39.3383C157.241 40.3438 158.121 41.1607 159.221 41.7891C160.32 42.4175 161.498 42.7317 162.755 42.7317C164.106 42.7317 165.347 42.4175 166.479 41.7891C167.61 41.1607 168.489 40.3438 169.118 39.3383C169.778 38.3329 170.108 37.2803 170.108 36.1806V14.3123H176.847V36.322C176.847 38.8042 176.219 41.0507 174.962 43.0616C173.705 45.0411 171.993 46.5964 169.825 47.7275C167.688 48.8272 165.332 49.377 162.755 49.377C160.179 49.377 157.822 48.8272 155.686 47.7275C153.549 46.5964 151.853 45.0411 150.596 43.0616C149.37 41.0507 148.758 38.8042 148.758 36.322V14.3123H155.592V36.1806ZM236.13 14.3123V50.4139H235.942L211.67 28.4984L211.811 49H204.883V12.9455H205.166L229.39 35.1909L229.249 14.3123H236.13ZM282.013 42.2133H270.513L267.685 49H260.946L276.593 12.9455H276.97L292.617 49H284.699L282.013 42.2133ZM279.751 36.4634L276.404 28.0271L272.917 36.4634H279.751ZM341.137 46.1251C340.257 46.8477 338.859 47.5704 336.942 48.293C335.026 49.0157 332.936 49.377 330.674 49.377C327.061 49.377 323.919 48.5915 321.248 47.0205C318.577 45.4495 316.535 43.3444 315.121 40.7051C313.707 38.0344 313 35.1124 313 31.9389C313 28.4513 313.707 25.3407 315.121 22.6072C316.535 19.8737 318.514 17.7528 321.059 16.2446C323.604 14.7051 326.542 13.9353 329.873 13.9353C331.978 13.9353 333.926 14.2181 335.717 14.7836C337.508 15.3492 339.079 16.0561 340.43 16.9045L337.743 23.3613C335.261 21.4761 332.716 20.5335 330.108 20.5335C328.349 20.5335 326.699 21.0205 325.16 21.9945C323.62 22.9685 322.395 24.3039 321.484 26.0006C320.572 27.6658 320.117 29.5196 320.117 31.5619C320.117 33.7927 320.541 35.7565 321.389 37.4531C322.238 39.1184 323.447 40.4223 325.018 41.3649C326.589 42.3075 328.427 42.7788 330.533 42.7788C332.229 42.7788 333.753 42.5118 335.104 41.9776C336.455 41.4121 337.524 40.7522 338.309 39.9982L341.137 46.1251ZM384.933 42.2133H373.433L370.606 49H363.866L379.513 12.9455H379.89L395.537 49H387.619L384.933 42.2133ZM382.671 36.4634L379.325 28.0271L375.837 36.4634H382.671Z" fill="#F8F9FA"/>
<path fill-rule="evenodd" clip-rule="evenodd" d="M63 0H0V63H63V0ZM49.2493 23.6776C49.2295 23.6039 49.209 23.5303 49.188 23.4569L49.1398 23.4447C49.1768 23.5222 49.2134 23.5998 49.2493 23.6776ZM48.6452 33.4547C49.9108 30.3492 50.1218 26.9127 49.2493 23.6776C50.7032 26.8229 51.2687 30.3118 50.8813 33.7618C50.4844 37.2971 49.1029 40.6479 46.896 43.4283C44.138 46.9449 40.2914 49.4344 35.9666 50.502C30.7805 51.6719 25.3451 50.7622 20.8151 47.9662C18.0491 46.1314 15.7845 43.6284 14.2285 40.6862C12.0868 36.4701 11.4644 31.6377 12.4673 27.0119C13.3465 23.2161 15.3787 19.7897 18.2818 17.2082C20.384 15.3615 22.8314 13.9552 25.4808 13.0718C28.1301 12.1885 30.9281 11.8457 33.7108 12.0637C32.861 12.0721 32.0135 12.1533 31.1775 12.3064C27.5566 13.0026 24.2799 14.92 21.8887 17.7421C20.4716 19.5779 19.4572 21.6948 18.9125 23.9535C18.3677 26.2121 18.3049 28.5612 18.7282 30.8461C19.7844 34.7541 22.2427 38.1301 25.6284 40.3222C27.6417 41.5353 29.8869 42.3072 32.2173 42.5873C34.5476 42.8675 36.9105 42.6497 39.1513 41.948C41.2374 41.281 43.1607 40.1801 44.7963 38.7169C46.4319 37.2537 47.7432 35.4608 48.6452 33.4547Z" fill="white"/>
</svg>
